<?xml version="1.0" encoding="UTF-8"?>
<svg xmlns="http://www.w3.org/2000/svg" xmlns:xlink="http://www.w3.org/1999/xlink" xmlns:svgjs="http://svgjs.com/svgjs" version="1.1" width="512" height="512" x="0" y="0" viewBox="0 0 682.667 682.667" style="enable-background:new 0 0 512 512" xml:space="preserve" class="">
  <g transform="matrix(-6.123233995736766e-17,-1,-1,6.123233995736766e-17,682.6634302139282,682.6634302139282)">
    <defs>
      <clipPath id="a">
        <path d="M0 512h512V0H0Z" fill="#000000" data-original="#000000"/>
      </clipPath>
    </defs>
    <g clip-path="url(#a)" transform="matrix(1.33333 0 0 -1.33333 0 682.667)">
      <path d="m0 0 38.808 4.567a239.597 239.597 0 0 0-1.266 41.283c.801 14.412-19.027 19.342-24.182 4.8A313.38 313.38 0 0 1 0 0" style="fill-opacity:1;fill-rule:evenodd;stroke:none" transform="translate(14.67 406.593)" fill="#ffc144" data-original="#ffc144"/>
      <path d="m0 0-38.808-4.567c-7.79-44.33-5.739-89.179 5.419-131.663l70.674 33.357C17.45-72.347 4.388-37.292 0 0" style="fill-opacity:1;fill-rule:evenodd;stroke:none" transform="translate(53.478 411.16)" fill="#c68a65" data-original="#c68a65"/>
      <path d="m0 0 66.399-136.514a307.194 307.194 0 0 1 47.975 29.051c5.627 3.604 7.461 11.067 4.068 16.911L57.052 15.252c-3.529 6.028-11.258 8.041-17.219 4.398A245.057 245.057 0 0 0 0 0" style="fill-opacity:1;fill-rule:evenodd;stroke:none" transform="translate(381.853 213.014)" fill="#ffc144" data-original="#ffc144"/>
      <path d="M0 0c11.363 8.016 2.715 21.956 14.079 29.971 9.025 6.364 17.332-.412 26.06.539A245.085 245.085 0 0 0-1.677 79.364l-70.674-33.357a307.875 307.875 0 0 1 30.034-73.78l.004.002c3.987 7.933.255 18.15 9.356 24.568C-21.593 4.812-11.364-8.015 0 0" style="fill-opacity:1;fill-rule:evenodd;stroke:none" transform="translate(92.44 228.923)" fill="#ffc144" data-original="#ffc144"/>
      <path d="M0 0c-11.364-8.015-2.716-21.955-14.079-29.971-11.364-8.014-21.593 4.813-32.957-3.203-9.101-6.418-5.369-16.635-9.356-24.567l-.004-.003a309.364 309.364 0 0 1 18.238-28.403C37.116-190.398 164.844-232.81 281.56-204.144l-.007.019c.32 2.39.165 4.96-.73 7.813-5.092 16.241-24.57 11.373-29.661 27.612-5.091 16.239 13.681 23.363 8.589 39.602-5.091 16.24-24.569 11.373-29.659 27.612-5.091 16.24 13.679 23.363 8.588 39.602-.568 1.812-1.316 3.359-2.201 4.702l-.65-.13c-27.671-5.493-56.41-6.116-85.189-1.525C102.762-51.2 60.001-29.92 26.06.539 17.332-.412 9.024 6.364 0 0" style="fill-opacity:1;fill-rule:evenodd;stroke:none" transform="translate(106.52 258.894)" fill="#ddb9a3" data-original="#ddb9a3" class=""/>
      <path d="M0 0c5.092-16.239-13.68-23.363-8.589-39.603 5.091-16.239 24.569-11.371 29.661-27.611.895-2.853 1.05-5.424.73-7.813l.007-.019a302.465 302.465 0 0 1 60.172 21.75L15.582 83.218a240.336 240.336 0 0 0-38.854-11.302c.885-1.344 1.633-2.891 2.201-4.702 5.092-16.239-13.679-23.362-8.588-39.603C-24.569 11.373-5.091 16.239 0 0" style="fill-opacity:1;fill-rule:evenodd;stroke:none" transform="translate(366.27 129.796)" fill="#c68a65" data-original="#c68a65"/>
      <path d="M0 0a312.385 312.385 0 0 0-7.158 9.486c-58.754 81.373-74.954 187.011-40.33 284.496 5.154 14.543 24.982 9.613 24.181-4.8-6.858-123.62 82.243-232.814 204.947-252.386 57.777-9.215 115.393 2.581 164.526 32.607 5.961 3.644 13.69 1.63 17.219-4.398l61.39-105.803c3.393-5.845 1.559-13.308-4.068-16.911-108.188-79.784-251.378-77.592-355.72-4.195" style="stroke-width:20;stroke-linecap:round;stroke-linejoin:round;stroke-miterlimit:22.926;stroke-dasharray:none;stroke-opacity:1" transform="translate(75.52 163.257)" fill="none" stroke="#000000" stroke-width="20" stroke-linecap="round" stroke-linejoin="round" stroke-miterlimit="22.926" stroke-dasharray="none" stroke-opacity="" data-original="#000000" class=""/>
      <path d="m0 0 36.522 4.299" style="stroke-width:20;stroke-linecap:round;stroke-linejoin:round;stroke-miterlimit:22.926;stroke-dasharray:none;stroke-opacity:1" transform="translate(15.813 406.724)" fill="none" stroke="#000000" stroke-width="20" stroke-linecap="round" stroke-linejoin="round" stroke-miterlimit="22.926" stroke-dasharray="none" stroke-opacity="" data-original="#000000" class=""/>
      <path d="M0 0c-5.092 16.239-24.57 11.371-29.661 27.611-5.091 16.24 13.681 23.364 8.589 39.603-5.091 16.239-24.57 11.372-29.659 27.611-5.091 16.239 13.679 23.363 8.587 39.602" style="stroke-width:20;stroke-linecap:round;stroke-linejoin:round;stroke-miterlimit:22.926;stroke-dasharray:none;stroke-opacity:1" transform="translate(387.343 62.58)" fill="none" stroke="#000000" stroke-width="20" stroke-linecap="round" stroke-linejoin="round" stroke-miterlimit="22.926" stroke-dasharray="none" stroke-opacity="" data-original="#000000" class=""/>
      <path d="M0 0c3.927 7.922.246 18.095 9.318 24.493 11.364 8.015 21.593-4.811 32.957 3.203 11.364 8.016 2.715 21.956 14.079 29.97 8.947 6.31 17.189-.295 25.835.518" style="stroke-width:20;stroke-linecap:round;stroke-linejoin:round;stroke-miterlimit:22.926;stroke-dasharray:none;stroke-opacity:1" transform="translate(50.165 201.224)" fill="none" stroke="#000000" stroke-width="20" stroke-linecap="round" stroke-linejoin="round" stroke-miterlimit="22.926" stroke-dasharray="none" stroke-opacity="" data-original="#000000" class=""/>
      <path d="m0 0 64.681-132.979" style="stroke-width:20;stroke-linecap:round;stroke-linejoin:round;stroke-miterlimit:22.926;stroke-dasharray:none;stroke-opacity:1" transform="translate(382.712 211.243)" fill="none" stroke="#000000" stroke-width="20" stroke-linecap="round" stroke-linejoin="round" stroke-miterlimit="22.926" stroke-dasharray="none" stroke-opacity="" data-original="#000000" class=""/>
      <path d="m0 0-68.137-32.16" style="stroke-width:20;stroke-linecap:round;stroke-linejoin:round;stroke-miterlimit:22.926;stroke-dasharray:none;stroke-opacity:1" transform="translate(89.495 307.685)" fill="none" stroke="#000000" stroke-width="20" stroke-linecap="round" stroke-linejoin="round" stroke-miterlimit="22.926" stroke-dasharray="none" stroke-opacity="" data-original="#000000" class=""/>
      <path d="M0 0h.008" style="stroke-width:20;stroke-linecap:round;stroke-linejoin:round;stroke-miterlimit:2.613;stroke-dasharray:none;stroke-opacity:1" transform="translate(105.71 129.893)" fill="none" stroke="#000000" stroke-width="20" stroke-linecap="round" stroke-linejoin="round" stroke-miterlimit="2.613" stroke-dasharray="none" stroke-opacity="" data-original="#000000" class=""/>
    </g>
  </g>
</svg>
