<svg xmlns="http://www.w3.org/2000/svg" version="1.1" xmlns:xlink="http://www.w3.org/1999/xlink" xmlns:svgjs="http://svgjs.dev/svgjs" width="1000" height="2637" viewBox="0 0 1000 2637"><g transform="matrix(1,0,0,1,1.0314425033955672,0.8064417980453982)"><svg viewBox="0 0 124 327" data-background-color="#0b022d" preserveAspectRatio="xMidYMid meet" height="2637" width="1000" xmlns="http://www.w3.org/2000/svg" xmlns:xlink="http://www.w3.org/1999/xlink"><g id="tight-bounds" transform="matrix(1,0,0,1,-0.12789874775069165,-0.10000245277240083)"><svg viewBox="0 0 124.25579577811646 327.2" height="327.2" width="124.25579577811646"><g><svg viewBox="0 0 184.0797671033479 484.73312185589907" height="327.2" width="124.25579577811646"><g transform="matrix(1,0,0,1,0,157.53312185589908)"><svg viewBox="0 0 184.0797671033479 327.2" height="327.2" width="184.0797671033479"><g id="textblocktransform"><svg viewBox="0 0 184.0797671033479 327.2" height="327.2" width="184.0797671033479" id="textblock"><g><svg viewBox="0 0 184.0797671033479 327.2" height="327.2" width="184.0797671033479"><g transform="matrix(1,0,0,1,0,0)"><svg width="184.0797671033479" viewBox="1.2300000190734863 -33.54999923706055 19.31999969482422 34.349998474121094" height="327.2" data-palette-color="#f7fff7"><path d="M1.23-1.15L1.23-1.15 1.23-8.97Q3.45-7.83 5.5-7.41 7.55-7 9.15-7L9.15-7Q10.78-7 11.61-7.94 12.45-8.88 12.45-11.15L12.45-11.15 12.45-33.55 20.55-33.55 20.55-11.15Q20.55-6.7 19.14-4.09 17.73-1.48 15.33-0.34 12.93 0.8 9.9 0.8L9.9 0.8Q7.5 0.8 5.3 0.25 3.1-0.3 1.23-1.15Z" opacity="1" transform="matrix(1,0,0,1,0,0)" fill="#f7fff7" class="undefined-text-0" data-fill-palette-color="primary" id="text-0"></path></svg></g></svg></g></svg></g></svg></g><g transform="matrix(1,0,0,1,35.15923551673945,0)"><svg viewBox="0 0 113.761296069869 131.3571218558991" height="131.3571218558991" width="113.761296069869"><g><svg xmlns="http://www.w3.org/2000/svg" xmlns:xlink="http://www.w3.org/1999/xlink" version="1.1" x="0" y="0" viewBox="9.54699993133545 3.2899999618530273 80.906005859375 93.41999816894531" enable-background="new 0 0 100 100" xml:space="preserve" height="131.3571218558991" width="113.761296069869" class="icon-icon-0" data-fill-palette-color="accent" id="icon-0"><g fill="#ee7ddc" data-fill-palette-color="accent"><path d="M31.112 39.094v21.812L49.999 71.81l18.89-10.903V39.094l-18.89-10.905L31.112 39.094zM60.925 56.308l-10.926 6.307-10.924-6.307V43.692l10.924-6.308 10.926 6.308V56.308z" fill="#ee7ddc" data-fill-palette-color="accent"></path><path d="M49.999 3.29L9.547 26.646v46.709L49.999 96.71l40.454-23.355V26.646L49.999 3.29zM82.19 68.584L49.999 87.169 17.811 68.584v-37.17l32.188-18.585L82.19 31.414V68.584z" fill="#ee7ddc" data-fill-palette-color="accent"></path><path d="M20.368 32.89v34.218l29.631 17.108 29.634-17.108V32.89L49.999 15.782 20.368 32.89zM71.446 62.383l-21.447 12.38-21.444-12.38V37.618l21.444-12.382 21.447 12.382V62.383z" fill="#ee7ddc" data-fill-palette-color="accent"></path></g></svg></g></svg></g><g></g></svg></g><defs></defs></svg><rect width="124.25579577811646" height="327.2" fill="none" stroke="none" visibility="hidden"></rect></g></svg></g></svg>